<svg width="45" height="45" viewBox="0 0 45 45" fill="none" xmlns="http://www.w3.org/2000/svg">
<path d="M18.9656 40.8956C20.1019 41.8331 21.2869 42.69 22.5 43.5263C23.7157 42.7011 24.895 41.8234 26.0344 40.8956C27.9338 39.336 29.7213 37.645 31.3838 35.835C35.2163 31.6444 39.375 25.5694 39.375 18.75C39.375 16.5339 38.9385 14.3396 38.0905 12.2922C37.2424 10.2448 35.9994 8.38456 34.4324 6.81757C32.8654 5.25058 31.0052 4.00758 28.9578 3.15953C26.9104 2.31148 24.7161 1.875 22.5 1.875C20.2839 1.875 18.0896 2.31148 16.0422 3.15953C13.9948 4.00758 12.1346 5.25058 10.5676 6.81757C9.00058 8.38456 7.75758 10.2448 6.90953 12.2922C6.06148 14.3396 5.625 16.5339 5.625 18.75C5.625 25.5694 9.78375 31.6425 13.6163 35.835C15.2787 37.6456 17.0662 39.3354 18.9656 40.8956ZM22.5 24.8438C20.8838 24.8438 19.3339 24.2017 18.1911 23.0589C17.0483 21.9161 16.4062 20.3662 16.4062 18.75C16.4062 17.1338 17.0483 15.5839 18.1911 14.4411C19.3339 13.2983 20.8838 12.6563 22.5 12.6563C24.1162 12.6563 25.6661 13.2983 26.8089 14.4411C27.9517 15.5839 28.5938 17.1338 28.5938 18.75C28.5938 20.3662 27.9517 21.9161 26.8089 23.0589C25.6661 24.2017 24.1162 24.8438 22.5 24.8438Z" fill="#E6CDA2"/>
</svg>
