<svg width="45" height="45" viewBox="0 0 45 45" fill="none" xmlns="http://www.w3.org/2000/svg">
<path d="M39.375 22.5003C39.3751 18.9743 38.2706 15.5369 36.2169 12.6708C34.1631 9.80468 31.2631 7.65391 27.9242 6.52053C24.5854 5.38715 20.9753 5.32812 17.6012 6.35171C14.2271 7.3753 11.2583 9.4301 9.11189 12.2275C6.96548 15.0249 5.74925 18.4244 5.63402 21.9485C5.51879 25.4726 6.51034 28.9443 8.46942 31.8759C10.4285 34.8076 13.2567 37.0519 16.5567 38.2938C19.8568 39.5356 23.463 39.7125 26.8688 38.7997" stroke="#E6CDA2" stroke-width="2" stroke-linecap="round"/>
<path d="M22.5 30C26.6421 30 30 26.6421 30 22.5C30 18.3579 26.6421 15 22.5 15C18.3579 15 15 18.3579 15 22.5C15 26.6421 18.3579 30 22.5 30Z" stroke="#E6CDA2" stroke-width="2"/>
<path d="M30 16.875V25.3125C30 26.5557 30.4939 27.748 31.3729 28.6271C32.252 29.5061 33.4443 30 34.6875 30C35.9307 30 37.123 29.5061 38.0021 28.6271C38.8811 27.748 39.375 26.5557 39.375 25.3125V22.5" stroke="#E6CDA2" stroke-width="2" stroke-linecap="round"/>
</svg>
