<svg width="44" height="45" viewBox="0 0 44 45" fill="none" xmlns="http://www.w3.org/2000/svg">
<path d="M30.3529 24.1987L29.5188 25.0481C29.5188 25.0481 27.5333 27.0656 22.1158 21.5568C16.6983 16.0481 18.6838 14.0306 18.6838 14.0306L19.2081 13.4943C20.5043 12.1781 20.6271 10.0631 19.4959 8.51809L17.1859 5.36246C15.7853 3.44996 13.0811 3.19684 11.4769 4.82809L8.5986 7.75309C7.80477 8.56309 7.2731 9.60934 7.33727 10.7718C7.50227 13.7475 8.8186 20.1468 16.1593 27.6131C23.9454 35.5293 31.2513 35.8443 34.2378 35.5593C35.1838 35.4693 36.0051 34.9781 36.6669 34.3031L39.2703 31.6556C41.0303 29.8687 40.5353 26.8031 38.2839 25.5525L34.7823 23.6043C33.3046 22.785 31.5079 23.025 30.3529 24.1987Z" fill="#E6CDA2"/>
</svg>
