<svg width="71" height="71" viewBox="0 0 71 71" fill="none" xmlns="http://www.w3.org/2000/svg">
<g clip-path="url(#clip0_2234_656)">
<path d="M4.97 4.97C9.40429e-07 9.98733 0 18.0103 0 34.08V36.92C0 52.966 9.40429e-07 60.989 4.97 66.03C9.98733 71 18.0103 71 34.08 71H36.92C52.966 71 60.989 71 66.03 66.03C71 61.0127 71 52.9897 71 36.92V34.08C71 18.034 71 10.011 66.03 4.97C61.0127 9.40429e-07 52.9897 0 36.92 0H34.08C18.034 0 10.011 9.40429e-07 4.97 4.97ZM11.9753 21.6077H20.1167C20.377 35.145 26.341 40.8723 31.0743 42.0557V21.6077H38.7187V33.2753C43.381 32.7783 48.3037 27.4533 49.9603 21.584H57.581C56.9592 24.6221 55.7178 27.4994 53.9342 30.0362C52.1507 32.5731 49.8634 34.715 47.215 36.3283C50.1711 37.7991 52.7817 39.88 54.8745 42.4338C56.9673 44.9876 58.4947 47.9562 59.356 51.1437H50.9543C49.1557 45.5347 44.659 41.18 38.7187 40.5883V51.1437H37.772C21.584 51.1437 12.354 40.0677 11.9753 21.6077Z" fill="#E6CDA2"/>
</g>
<defs>
<clipPath id="clip0_2234_656">
<rect width="71" height="71" fill="white"/>
</clipPath>
</defs>
</svg>
