<svg width="1689" height="720" viewBox="0 0 1689 720" fill="none" xmlns="http://www.w3.org/2000/svg">
<g clip-path="url(#clip0_868_69)">
<mask id="mask0_868_69" style="mask-type:luminance" maskUnits="userSpaceOnUse" x="0" y="0" width="1653" height="544">
<path d="M1653 0H0V544H1653V0Z" fill="white"/>
</mask>
<g mask="url(#mask0_868_69)">
<path d="M1346.63 386.671L1265 169.286H1214.66V545.347H1269.74V324.192L1351.42 545.347H1401.82V169.286H1346.63V386.671Z" fill="url(#paint0_linear_868_69)"/>
<path d="M1079.35 169.286H1032.94L957.069 543.569L956.692 545.454H1011.13L1021.25 490.677H1090.98L1101.1 545.454H1155.54L1079.56 170.579L1079.29 169.34L1079.35 169.286ZM1080.86 435.739H1031.48L1056.2 302.378L1080.91 435.739H1080.86Z" fill="url(#paint1_linear_868_69)"/>
<path d="M554.859 169.286H478.347V545.347H533.806V425.559H554.805C655.492 425.559 658.4 310.565 658.4 297.423C658.4 276.04 653.392 169.286 554.805 169.286H554.859ZM602.995 297.423C602.995 304.855 601.541 370.028 551.036 370.028H533.86V224.764H551.036C601.541 224.764 602.995 289.99 602.995 297.423Z" fill="url(#paint2_linear_868_69)"/>
<path d="M897.628 297.423C897.628 276.04 892.62 169.286 794.032 169.286H717.521V545.347H772.979V425.559H793.979C794.625 425.559 795.164 425.505 795.81 425.505L840.339 545.347H896.013L850.354 422.435H820.685C895.205 404.068 897.574 309.272 897.574 297.423H897.628ZM842.169 297.423C842.169 304.855 840.715 370.028 790.209 370.028H773.034V224.764H790.209C840.715 224.764 842.169 289.99 842.169 297.423Z" fill="url(#paint3_linear_868_69)"/>
<path d="M82.9731 164.547C31.0139 164.547 0 196.594 0 250.186C0 286.758 31.2293 330.601 61.4894 373.044C86.6344 408.323 110.379 441.663 110.379 464.447C110.379 491.162 95.734 494.609 82.9731 494.609C69.4045 494.609 55.459 491 55.459 464.447V446.619H0V464.447C0 522.886 26.3834 550.086 82.9731 550.086C134.932 550.086 165.946 518.039 165.946 464.447C165.946 425.882 131.755 377.461 101.603 334.749C77.9118 301.247 55.5666 269.576 55.5666 250.132C55.5666 223.417 70.2121 219.97 82.9731 219.97C96.5417 219.97 110.487 223.579 110.487 250.132V267.96H165.946V250.132C165.946 191.693 139.563 164.493 82.9731 164.493V164.547Z" fill="url(#paint4_linear_868_69)"/>
<path d="M1563.24 171.71H1552.85C1481.29 171.71 1460.89 230.688 1460.89 268.768V445.919C1460.89 483.999 1481.29 542.977 1552.85 542.977H1563.24C1634.8 542.977 1655.21 483.999 1655.21 445.919V268.768C1655.21 230.688 1634.8 171.71 1563.24 171.71ZM1599.75 445.919C1599.75 470.318 1588.01 487.553 1563.24 487.553H1552.85C1528.08 487.553 1516.35 470.318 1516.35 445.919V268.768C1516.35 244.369 1528.08 227.134 1552.85 227.134H1563.24C1588.01 227.134 1599.75 244.369 1599.75 268.768V445.919Z" fill="url(#paint5_linear_868_69)"/>
<path d="M327.365 171.71H316.973C245.415 171.71 225.008 230.688 225.008 268.768V445.919C225.008 483.999 245.415 542.977 316.973 542.977H327.365C398.923 542.977 419.33 483.999 419.33 445.919V268.768C419.33 230.688 398.923 171.71 327.365 171.71ZM363.871 445.919C363.871 470.318 352.133 487.553 327.365 487.553H316.973C292.205 487.553 280.467 470.318 280.467 445.919V268.768C280.467 244.369 292.205 227.134 316.973 227.134H327.365C352.133 227.134 363.871 244.369 363.871 268.768V445.919Z" fill="url(#paint6_linear_868_69)"/>
<path d="M1170.24 44.6511L1060.78 118.495L1043.01 105.676L1154.74 0L1170.24 44.6511Z" fill="url(#paint7_linear_868_69)"/>
</g>
</g>
<path d="M31.64 632.5V659.24C31.64 676.32 38.22 683.46 52.92 683.46V694.1C29.96 694.1 20.44 682.34 20.44 659.24V632.5H5.74V627.74L27.02 606.32H31.64V622H52.92V632.5H31.64ZM137.049 692H127.389L125.989 677.58C120.389 687.94 110.309 694.1 98.4091 694.1C79.2291 694.1 64.6691 678.28 64.6691 657.14C64.6691 635.72 79.2291 619.9 98.4091 619.9C110.309 619.9 120.249 626.06 125.849 636.42L127.389 622H137.049V692ZM75.8691 657C75.8691 672.54 86.6491 683.88 101.349 683.88C115.769 683.88 125.849 672.96 125.849 657C125.849 641.18 115.769 629.98 101.349 629.98C86.3691 629.98 75.8691 641.18 75.8691 657ZM179.296 632.5V659.24C179.296 676.32 185.876 683.46 200.576 683.46V694.1C177.616 694.1 168.096 682.34 168.096 659.24V632.5H153.396V627.74L174.676 606.32H179.296V622H200.576V632.5H179.296ZM238.632 632.5V659.24C238.632 676.32 245.212 683.46 259.912 683.46V694.1C236.952 694.1 227.432 682.34 227.432 659.24V632.5H212.732V627.74L234.012 606.32H238.632V622H259.912V632.5H238.632ZM271.801 657.14C271.801 635.72 287.621 619.9 308.621 619.9C330.181 619.9 345.861 635.02 345.861 657.14C345.861 678.98 330.181 694.1 308.621 694.1C287.621 694.1 271.801 678.28 271.801 657.14ZM283.001 657C283.001 672.26 294.061 683.46 308.621 683.46C324.161 683.46 334.661 672.82 334.661 657C334.661 641.18 324.021 630.4 308.621 630.4C293.921 630.4 283.001 641.74 283.001 657ZM357.387 657.14C357.387 635.72 373.207 619.9 394.207 619.9C415.767 619.9 431.447 635.02 431.447 657.14C431.447 678.98 415.767 694.1 394.207 694.1C373.207 694.1 357.387 678.28 357.387 657.14ZM368.587 657C368.587 672.26 379.647 683.46 394.207 683.46C409.747 683.46 420.247 672.82 420.247 657C420.247 641.18 409.607 630.4 394.207 630.4C379.507 630.4 368.587 641.74 368.587 657ZM537.473 673.38C537.473 685.14 526.133 694.1 509.893 694.1C492.113 694.1 479.653 686.54 477.973 672.26H488.613C490.153 680.94 497.433 685.56 510.033 685.56C519.553 685.56 526.833 680.24 526.833 673.52C526.833 652.8 480.213 668.62 480.213 640.48C480.213 629.14 491.273 619.9 507.513 619.9C524.733 619.9 535.653 628.16 536.773 642.02H526.413C525.853 634.32 519.833 628.3 507.373 628.3C498.413 628.3 490.993 633.62 490.993 640.34C490.993 660.36 537.473 643.42 537.473 673.38ZM574.687 632.5V659.24C574.687 676.32 581.267 683.46 595.967 683.46V694.1C573.007 694.1 563.487 682.34 563.487 659.24V632.5H548.787V627.74L570.067 606.32H574.687V622H595.967V632.5H574.687ZM669.723 656.58V622H680.923V692H671.263L669.863 678.14C664.403 687.94 654.883 694.1 643.543 694.1C625.763 694.1 613.163 678.42 613.163 656.58V622H624.363V656.58C624.363 672.68 633.323 683.46 646.903 683.46C660.483 683.46 669.723 672.54 669.723 656.58ZM769.777 692H759.977L758.717 677.86C752.977 688.08 742.757 694.1 730.997 694.1C711.957 694.1 697.677 678.28 697.677 657.14C697.677 635.72 711.817 619.9 730.997 619.9C742.757 619.9 752.837 625.92 758.577 636V594H769.777V692ZM708.877 657C708.877 672.54 719.657 683.88 733.937 683.88C748.637 683.88 758.577 672.96 758.577 657C758.577 641.18 748.497 629.98 733.937 629.98C719.517 629.98 708.877 641.18 708.877 657ZM792.144 597.92C792.144 594.28 794.524 591.9 798.024 591.9C801.664 591.9 804.044 594.28 804.044 597.92C804.044 601.42 801.664 603.8 798.024 603.8C794.524 603.8 792.144 601.42 792.144 597.92ZM803.624 692H792.424V622H803.624V692ZM821.411 657.14C821.411 635.72 837.231 619.9 858.231 619.9C879.791 619.9 895.471 635.02 895.471 657.14C895.471 678.98 879.791 694.1 858.231 694.1C837.231 694.1 821.411 678.28 821.411 657.14ZM832.611 657C832.611 672.26 843.671 683.46 858.231 683.46C873.771 683.46 884.271 672.82 884.271 657C884.271 641.18 873.631 630.4 858.231 630.4C843.531 630.4 832.611 641.74 832.611 657ZM977.417 656.58L1005.56 692H992.257L970.837 664.98L949.417 692H935.977L964.117 656.58L936.537 622H949.977L970.837 648.18L991.557 622H1004.86L977.417 656.58ZM1118.83 692H1109.17L1107.77 677.58C1102.17 687.94 1092.09 694.1 1080.19 694.1C1061.01 694.1 1046.45 678.28 1046.45 657.14C1046.45 635.72 1061.01 619.9 1080.19 619.9C1092.09 619.9 1102.03 626.06 1107.63 636.42L1109.17 622H1118.83V692ZM1057.65 657C1057.65 672.54 1068.43 683.88 1083.13 683.88C1097.55 683.88 1107.63 672.96 1107.63 657C1107.63 641.18 1097.55 629.98 1083.13 629.98C1068.15 629.98 1057.65 641.18 1057.65 657ZM1146.65 657C1146.65 672.54 1157.43 683.88 1172.13 683.88C1183.75 683.88 1192.99 677.3 1196.63 667.36H1208.25C1203.63 683.46 1190.05 694.1 1172.13 694.1C1151.13 694.1 1135.45 678.28 1135.45 657.14C1135.45 635.72 1150.99 619.9 1172.13 619.9C1189.91 619.9 1203.49 630.4 1208.11 646.5H1196.49C1192.71 636.7 1183.61 629.98 1172.13 629.98C1157.43 629.98 1146.65 641.6 1146.65 657ZM1290.27 692H1280.61L1279.21 677.58C1273.61 687.94 1263.53 694.1 1251.63 694.1C1232.45 694.1 1217.89 678.28 1217.89 657.14C1217.89 635.72 1232.45 619.9 1251.63 619.9C1263.53 619.9 1273.47 626.06 1279.07 636.42L1280.61 622H1290.27V692ZM1229.09 657C1229.09 672.54 1239.87 683.88 1254.57 683.88C1268.99 683.88 1279.07 672.96 1279.07 657C1279.07 641.18 1268.99 629.98 1254.57 629.98C1239.59 629.98 1229.09 641.18 1229.09 657ZM1378.86 692H1369.06L1367.8 677.86C1362.06 688.08 1351.84 694.1 1340.08 694.1C1321.04 694.1 1306.76 678.28 1306.76 657.14C1306.76 635.72 1320.9 619.9 1340.08 619.9C1351.84 619.9 1361.92 625.92 1367.66 636V594H1378.86V692ZM1317.96 657C1317.96 672.54 1328.74 683.88 1343.02 683.88C1357.72 683.88 1367.66 672.96 1367.66 657C1367.66 641.18 1357.58 629.98 1343.02 629.98C1328.6 629.98 1317.96 641.18 1317.96 657ZM1467.73 660.22H1407.11C1408.37 674.64 1418.31 685.14 1431.61 685.14C1441.41 685.14 1449.39 680.1 1454.01 672.12H1465.49C1459.75 685.7 1447.29 694.1 1431.61 694.1C1411.03 694.1 1395.77 678.28 1395.77 657.14C1395.77 635.72 1410.75 619.9 1431.61 619.9C1452.89 619.9 1467.87 635.02 1467.87 657.14C1467.87 658.12 1467.73 659.1 1467.73 660.22ZM1407.11 653.78H1456.53C1455.27 639.08 1445.47 629.14 1431.61 629.14C1418.31 629.14 1408.37 639.36 1407.11 653.78ZM1495.81 657.42V692H1484.61V622H1494.27L1495.67 635.44C1500.85 625.78 1509.67 619.9 1520.31 619.9C1532.77 619.9 1542.43 627.88 1546.77 640.62C1551.39 628.02 1561.47 619.9 1573.79 619.9C1590.87 619.9 1602.91 635.44 1602.91 657.42V692H1591.71V657.42C1591.71 641.18 1583.03 630.4 1570.43 630.4C1558.11 630.4 1549.43 641.32 1549.43 657.42V692H1538.23V657.42C1538.23 641.18 1529.83 630.4 1516.95 630.4C1504.35 630.4 1495.81 641.32 1495.81 657.42ZM1655.19 719.58H1643.43L1652.95 692H1634.89L1611.09 622H1622.57L1642.59 680.38H1656.87L1676.89 622H1688.23L1655.19 719.58Z" fill="url(#paint8_linear_868_69)"/>
<defs>
<linearGradient id="paint0_linear_868_69" x1="1303.85" y1="112.213" x2="1217.79" y2="565.821" gradientUnits="userSpaceOnUse">
<stop stop-color="#ECDBAD"/>
<stop offset="1" stop-color="#A79167"/>
</linearGradient>
<linearGradient id="paint1_linear_868_69" x1="1051.45" y1="112.196" x2="970.076" y2="567.733" gradientUnits="userSpaceOnUse">
<stop stop-color="#ECDBAD"/>
<stop offset="1" stop-color="#A79167"/>
</linearGradient>
<linearGradient id="paint2_linear_868_69" x1="564.153" y1="112.213" x2="474.938" y2="564.556" gradientUnits="userSpaceOnUse">
<stop stop-color="#ECDBAD"/>
<stop offset="1" stop-color="#A79167"/>
</linearGradient>
<linearGradient id="paint3_linear_868_69" x1="803.353" y1="112.213" x2="714.163" y2="564.566" gradientUnits="userSpaceOnUse">
<stop stop-color="#ECDBAD"/>
<stop offset="1" stop-color="#A79167"/>
</linearGradient>
<linearGradient id="paint4_linear_868_69" x1="79.0836" y1="105.972" x2="-21.7883" y2="565.691" gradientUnits="userSpaceOnUse">
<stop stop-color="#ECDBAD"/>
<stop offset="1" stop-color="#A79167"/>
</linearGradient>
<linearGradient id="paint5_linear_868_69" x1="1553.49" y1="115.364" x2="1472.43" y2="564.687" gradientUnits="userSpaceOnUse">
<stop stop-color="#ECDBAD"/>
<stop offset="1" stop-color="#A79167"/>
</linearGradient>
<linearGradient id="paint6_linear_868_69" x1="317.614" y1="115.364" x2="236.548" y2="564.687" gradientUnits="userSpaceOnUse">
<stop stop-color="#ECDBAD"/>
<stop offset="1" stop-color="#A79167"/>
</linearGradient>
<linearGradient id="paint7_linear_868_69" x1="1103.64" y1="-17.9837" x2="1090.72" y2="128.956" gradientUnits="userSpaceOnUse">
<stop stop-color="#ECDBAD"/>
<stop offset="1" stop-color="#A79167"/>
</linearGradient>
<linearGradient id="paint8_linear_868_69" x1="844.5" y1="692" x2="844.5" y2="594" gradientUnits="userSpaceOnUse">
<stop stop-color="#AA946B"/>
<stop offset="1" stop-color="#E1CFA2"/>
</linearGradient>
<clipPath id="clip0_868_69">
<rect width="1653" height="544" fill="white"/>
</clipPath>
</defs>
</svg>
