<svg width="1653" height="544" viewBox="0 0 1653 544" fill="none" xmlns="http://www.w3.org/2000/svg">
<g clip-path="url(#clip0_29_726)">
<path d="M1346.63 386.671L1265 169.286H1214.66V545.347H1269.74V324.192L1351.42 545.347H1401.82V169.286H1346.63V386.671Z" fill="url(#paint0_linear_29_726)"/>
<path d="M1079.35 169.286H1032.94L957.069 543.569L956.692 545.454H1011.13L1021.25 490.677H1090.98L1101.1 545.454H1155.54L1079.56 170.579L1079.29 169.34L1079.35 169.286ZM1080.86 435.739H1031.48L1056.2 302.378L1080.91 435.739H1080.86Z" fill="url(#paint1_linear_29_726)"/>
<path d="M554.859 169.286H478.347V545.347H533.806V425.559H554.805C655.492 425.559 658.4 310.565 658.4 297.423C658.4 276.04 653.392 169.286 554.805 169.286H554.859ZM602.995 297.423C602.995 304.855 601.541 370.028 551.036 370.028H533.86V224.764H551.036C601.541 224.764 602.995 289.99 602.995 297.423Z" fill="url(#paint2_linear_29_726)"/>
<path d="M897.628 297.423C897.628 276.04 892.62 169.286 794.032 169.286H717.521V545.347H772.979V425.559H793.979C794.625 425.559 795.163 425.505 795.809 425.505L840.338 545.347H896.012L850.353 422.435H820.685C895.205 404.068 897.574 309.272 897.574 297.423H897.628ZM842.169 297.423C842.169 304.855 840.715 370.028 790.209 370.028H773.033V224.764H790.209C840.715 224.764 842.169 289.99 842.169 297.423Z" fill="url(#paint3_linear_29_726)"/>
<path d="M82.9731 164.547C31.0139 164.547 0 196.594 0 250.186C0 286.758 31.2293 330.601 61.4894 373.044C86.6344 408.323 110.379 441.663 110.379 464.447C110.379 491.162 95.734 494.609 82.9731 494.609C69.4045 494.609 55.459 491 55.459 464.447V446.619H0V464.447C0 522.886 26.3834 550.086 82.9731 550.086C134.932 550.086 165.946 518.039 165.946 464.447C165.946 425.882 131.755 377.461 101.603 334.749C77.9118 301.247 55.5666 269.576 55.5666 250.132C55.5666 223.417 70.2121 219.97 82.9731 219.97C96.5417 219.97 110.487 223.579 110.487 250.132V267.96H165.946V250.132C165.946 191.693 139.563 164.493 82.9731 164.493V164.547Z" fill="url(#paint4_linear_29_726)"/>
<path d="M1563.24 171.71H1552.85C1481.29 171.71 1460.89 230.688 1460.89 268.768V445.919C1460.89 483.999 1481.29 542.977 1552.85 542.977H1563.24C1634.8 542.977 1655.21 483.999 1655.21 445.919V268.768C1655.21 230.688 1634.8 171.71 1563.24 171.71ZM1599.75 445.919C1599.75 470.318 1588.01 487.553 1563.24 487.553H1552.85C1528.08 487.553 1516.35 470.318 1516.35 445.919V268.768C1516.35 244.369 1528.08 227.134 1552.85 227.134H1563.24C1588.01 227.134 1599.75 244.369 1599.75 268.768V445.919Z" fill="url(#paint5_linear_29_726)"/>
<path d="M327.365 171.71H316.973C245.415 171.71 225.008 230.688 225.008 268.768V445.919C225.008 483.999 245.415 542.977 316.973 542.977H327.365C398.923 542.977 419.33 483.999 419.33 445.919V268.768C419.33 230.688 398.923 171.71 327.365 171.71ZM363.871 445.919C363.871 470.318 352.133 487.553 327.365 487.553H316.973C292.205 487.553 280.467 470.318 280.467 445.919V268.768C280.467 244.369 292.205 227.134 316.973 227.134H327.365C352.133 227.134 363.871 244.369 363.871 268.768V445.919Z" fill="url(#paint6_linear_29_726)"/>
<path d="M1170.24 44.6511L1060.78 118.495L1043.01 105.676L1154.74 0L1170.24 44.6511Z" fill="url(#paint7_linear_29_726)"/>
</g>
<defs>
<linearGradient id="paint0_linear_29_726" x1="1303.85" y1="112.213" x2="1217.79" y2="565.821" gradientUnits="userSpaceOnUse">
<stop stop-color="#ECDBAD"/>
<stop offset="1" stop-color="#A79167"/>
</linearGradient>
<linearGradient id="paint1_linear_29_726" x1="1051.45" y1="112.196" x2="970.076" y2="567.733" gradientUnits="userSpaceOnUse">
<stop stop-color="#ECDBAD"/>
<stop offset="1" stop-color="#A79167"/>
</linearGradient>
<linearGradient id="paint2_linear_29_726" x1="564.153" y1="112.213" x2="474.938" y2="564.556" gradientUnits="userSpaceOnUse">
<stop stop-color="#ECDBAD"/>
<stop offset="1" stop-color="#A79167"/>
</linearGradient>
<linearGradient id="paint3_linear_29_726" x1="803.353" y1="112.213" x2="714.162" y2="564.566" gradientUnits="userSpaceOnUse">
<stop stop-color="#ECDBAD"/>
<stop offset="1" stop-color="#A79167"/>
</linearGradient>
<linearGradient id="paint4_linear_29_726" x1="79.0836" y1="105.972" x2="-21.7883" y2="565.691" gradientUnits="userSpaceOnUse">
<stop stop-color="#ECDBAD"/>
<stop offset="1" stop-color="#A79167"/>
</linearGradient>
<linearGradient id="paint5_linear_29_726" x1="1553.49" y1="115.364" x2="1472.43" y2="564.687" gradientUnits="userSpaceOnUse">
<stop stop-color="#ECDBAD"/>
<stop offset="1" stop-color="#A79167"/>
</linearGradient>
<linearGradient id="paint6_linear_29_726" x1="317.614" y1="115.364" x2="236.548" y2="564.687" gradientUnits="userSpaceOnUse">
<stop stop-color="#ECDBAD"/>
<stop offset="1" stop-color="#A79167"/>
</linearGradient>
<linearGradient id="paint7_linear_29_726" x1="1103.64" y1="-17.9837" x2="1090.72" y2="128.956" gradientUnits="userSpaceOnUse">
<stop stop-color="#ECDBAD"/>
<stop offset="1" stop-color="#A79167"/>
</linearGradient>
<clipPath id="clip0_29_726">
<rect width="1653" height="544" fill="white"/>
</clipPath>
</defs>
</svg>
